<svg width="20" height="20" viewBox="0 0 20 20" fill="none" xmlns="http://www.w3.org/2000/svg">
<path d="M10 11.6667C10 10 11.3133 9.72108 11.7656 9.26996C12.2193 8.81738 12.5 8.19147 12.5 7.5C12.5 6.11929 11.3807 5 10 5C9.25341 5 8.58326 5.32727 8.12517 5.84618C7.91335 6.08612 7.74688 6.36703 7.63916 6.67551" stroke-width="1.5" stroke-linecap="round"/>
<path fill-rule="evenodd" clip-rule="evenodd" d="M10 14.9997C10.4603 14.9997 10.8334 14.6266 10.8334 14.1663C10.8334 13.7061 10.4603 13.333 10 13.333C9.53978 13.333 9.16669 13.7061 9.16669 14.1663C9.16669 14.6266 9.53978 14.9997 10 14.9997Z" fill="white" stroke-width="1.5"/>
<path fill-rule="evenodd" clip-rule="evenodd" d="M9.99999 18.3337C14.6024 18.3337 18.3333 14.6027 18.3333 10.0003C18.3333 5.39795 14.6024 1.66699 9.99999 1.66699C5.39762 1.66699 1.66666 5.39795 1.66666 10.0003C1.66666 14.6027 5.39762 18.3337 9.99999 18.3337Z" stroke-width="1.5"/>
</svg>
