<svg width="20" height="21" viewBox="0 0 20 21" fill="none" xmlns="http://www.w3.org/2000/svg">
<path d="M17.5 11H16.1667C15.0621 11 14.1667 11.8954 14.1667 13V14.3333C14.1667 15.2538 14.9129 16 15.8333 16V16C16.7538 16 17.5 15.2538 17.5 14.3333V11C17.5 6.85786 14.1421 3.5 10 3.5C5.85786 3.5 2.5 6.85786 2.5 11V14.3333C2.5 15.2538 3.24619 16 4.16667 16V16C5.08714 16 5.83333 15.2538 5.83333 14.3333V13C5.83333 11.8954 4.9379 11 3.83333 11H2.5" stroke-width="1.5"/>
<path d="M17.5001 12.667V16.0003C17.5001 16.0003 17.5001 18.5003 15.8334 18.5003C14.1667 18.5003 11.6667 18.5003 11.6667 18.5003" stroke-width="1.5" stroke-linejoin="round"/>
</svg>
