<svg width="20" height="20" viewBox="0 0 20 20" fill="none" xmlns="http://www.w3.org/2000/svg">
<path d="M17.5 14.1663V14.9163C17.9142 14.9163 18.25 14.5806 18.25 14.1663H17.5ZM17.5 3.33301H18.25C18.25 2.91879 17.9142 2.58301 17.5 2.58301V3.33301ZM10.8333 14.1663V13.4163C10.6852 13.4163 10.5404 13.4602 10.4172 13.5423L10.8333 14.1663ZM5.83332 17.4996H5.08332C5.08332 17.7762 5.23556 18.0304 5.47943 18.1609C5.7233 18.2914 6.01921 18.2771 6.24935 18.1237L5.83332 17.4996ZM5.83332 14.1663H6.58332C6.58332 13.7521 6.24754 13.4163 5.83332 13.4163V14.1663ZM2.5 14.1663H1.75C1.75 14.5806 2.08579 14.9163 2.5 14.9163V14.1663ZM2.5 3.33301V2.58301C2.08579 2.58301 1.75 2.91879 1.75 3.33301H2.5ZM18.25 14.1663V3.33301H16.75V14.1663H18.25ZM10.8333 14.9163H17.5V13.4163H10.8333V14.9163ZM6.24935 18.1237L11.2493 14.7904L10.4172 13.5423L5.4173 16.8756L6.24935 18.1237ZM5.08332 14.1663V17.4996H6.58332V14.1663H5.08332ZM2.5 14.9163H5.83332V13.4163H2.5V14.9163ZM1.75 3.33301V14.1663H3.25V3.33301H1.75ZM17.5 2.58301H2.5V4.08301H17.5V2.58301Z" fill="#1DC255"/>
</svg>
