<svg width="20" height="20" viewBox="0 0 20 20" fill="none" xmlns="http://www.w3.org/2000/svg">
<path d="M3.33325 7.5C3.33325 7.5 3.60019 8.05613 4.16658 8.76204M9.99992 11.6667C11.3399 11.6667 12.46 11.3231 13.3761 10.8333M9.99992 11.6667C8.65993 11.6667 7.5398 11.3231 6.62376 10.8333M9.99992 11.6667L9.99992 14.5833M16.6666 7.5C16.6666 7.5 16.3719 8.11402 15.7447 8.87063M13.3761 10.8333L15.8333 13.3333M13.3761 10.8333C14.4256 10.2722 15.2072 9.51904 15.7447 8.87063M6.62376 10.8333L4.58325 13.3333M6.62376 10.8333C5.51509 10.2405 4.70536 9.43353 4.16658 8.76204M15.7447 8.87063L18.3333 10M4.16658 8.76204L1.66658 10" stroke="#1DC255" stroke-width="1.5" stroke-linecap="round"/>
</svg>
