<svg width="28" height="40" viewBox="0 0 28 40" fill="none" xmlns="http://www.w3.org/2000/svg">
<g clip-path="url(#clip0_552:6425)">
<path d="M27.6607 37.4309H0.674805V0.5H21.659L27.6607 6.41618V37.4309Z" fill="white" stroke="#D8D8D8"/>
<path d="M21.8633 0V6.20697H28.1599L21.8633 0Z" fill="#D8D8D8"/>
<path d="M0.174805 27.5859H28.1607V39.9999H0.174805V27.5859Z" fill="#B53438"/>
<path d="M4.37254 37.931C3.98647 37.931 3.67285 37.6222 3.67285 37.2416V30.345C3.67285 29.9641 3.98647 29.6553 4.37254 29.6553C4.75892 29.6553 5.07224 29.9641 5.07224 30.345V37.2416C5.07224 37.6222 4.75892 37.931 4.37254 37.931Z" fill="white"/>
<path d="M23.963 31.0347H19.7651C19.3791 31.0347 19.0654 30.7255 19.0654 30.345C19.0654 29.9641 19.3791 29.6553 19.7651 29.6553H23.963C24.3494 29.6553 24.6627 29.9641 24.6627 30.345C24.6627 30.7255 24.3494 31.0347 23.963 31.0347Z" fill="white"/>
<path d="M23.963 34.4829H19.7651C19.3791 34.4829 19.0654 34.1741 19.0654 33.7932C19.0654 33.4127 19.3791 33.1035 19.7651 33.1035H23.963C24.3494 33.1035 24.6627 33.4127 24.6627 33.7932C24.6627 34.1741 24.3494 34.4829 23.963 34.4829Z" fill="white"/>
<path d="M19.7651 37.931C19.3791 37.931 19.0654 37.6222 19.0654 37.2416V30.345C19.0654 29.9641 19.3791 29.6553 19.7651 29.6553C20.1515 29.6553 20.4648 29.9641 20.4648 30.345V37.2416C20.4648 37.6222 20.1515 37.931 19.7651 37.931Z" fill="white"/>
<path d="M13.6643 7.43262C13.5958 7.45459 12.7373 8.62494 13.7314 9.61523C14.3934 8.17999 13.6946 7.42346 13.6643 7.43262ZM14.0878 13.1766C13.5887 14.856 12.9305 16.6691 12.2231 18.3103C13.6797 17.7601 15.2646 17.2794 16.7519 16.9395C15.811 15.8753 14.8705 14.5463 14.0878 13.1766ZM19.2959 17.6435C19.864 18.0689 20.0024 18.2841 20.3748 18.2841C20.5377 18.2841 21.003 18.2773 21.2178 17.985C21.3222 17.8428 21.3627 17.7518 21.3779 17.7042C21.2928 17.6594 21.1785 17.5706 20.5587 17.5706C20.2061 17.5706 19.764 17.5855 19.2959 17.6435ZM9.78839 20.6592C8.29799 21.4738 7.69086 22.1436 7.64752 22.5214C7.6404 22.5843 7.62151 22.7485 7.94752 22.9911C8.05185 22.9587 8.65836 22.6896 9.78839 20.6592ZM7.93204 24.1379C7.68931 24.1379 7.4565 24.0613 7.25773 23.9167C6.53204 23.3857 6.4342 22.7958 6.48033 22.3939C6.60696 21.2897 8.01037 20.1325 10.6531 18.9539C11.7017 16.7167 12.6995 13.96 13.2943 11.6572C12.5989 10.1829 11.9221 8.27032 12.4147 7.14819C12.5875 6.75513 12.8039 6.45331 13.2054 6.32269C13.3649 6.27173 13.7664 6.20703 13.9141 6.20703C14.28 6.20703 14.6314 6.63733 14.8005 6.91718C15.1153 7.43658 15.1169 8.04144 15.067 8.62494C15.0187 9.19165 14.9209 9.75531 14.8082 10.3126C14.7259 10.7221 14.6327 11.1298 14.5333 11.536C15.4729 13.4247 16.8036 15.3498 18.0798 16.6675C18.9943 16.507 19.7807 16.4255 20.4216 16.4255C21.5123 16.4255 22.1748 16.673 22.4442 17.1827C22.6683 17.6047 22.5757 18.0988 22.172 18.649C21.7838 19.1779 21.2494 19.4572 20.6247 19.4572C19.7757 19.4572 18.7894 18.9359 17.6881 17.9062C15.7101 18.3091 13.4005 19.0269 11.5333 19.8215C10.9503 21.0254 10.3921 21.9953 9.87167 22.707C9.15867 23.6835 8.54226 24.1379 7.93204 24.1379Z" fill="#B53438"/>
<path d="M6.47162 35.1725H4.37254C3.98647 35.1725 3.67285 34.8637 3.67285 34.4828V30.345C3.67285 29.9641 3.98647 29.6553 4.37254 29.6553H6.47162C8.01497 29.6553 9.27008 30.8925 9.27008 32.4141C9.27008 33.9354 8.01497 35.1725 6.47162 35.1725ZM5.07224 33.7932H6.47162C7.24314 33.7932 7.8707 33.1746 7.8707 32.4141C7.8707 31.6533 7.24314 31.0347 6.47162 31.0347H5.07224V33.7932Z" fill="white"/>
<path d="M12.7685 37.931H12.0688C11.6825 37.931 11.3691 37.6222 11.3691 37.2416V30.345C11.3691 29.9641 11.6825 29.6553 12.0688 29.6553H12.7685C15.0828 29.6553 16.9664 31.511 16.9664 33.7932C16.9664 36.0753 15.0828 37.931 12.7685 37.931ZM12.7685 36.5519H12.7753H12.7685ZM12.7685 31.0347V36.5519C14.3119 36.5519 15.567 35.3145 15.567 33.7932C15.567 32.2719 14.3119 31.0347 12.7685 31.0347Z" fill="white"/>
</g>
<defs>
<clipPath id="clip0_552:6425">
<rect width="28" height="40" fill="white"/>
</clipPath>
</defs>
</svg>
