<svg width="20" height="20" viewBox="0 0 20 20" fill="none" xmlns="http://www.w3.org/2000/svg">
<g opacity="0.7" clip-path="url(#clip0_528:7323)">
<path d="M13.7049 11.7601C13.4818 11.6479 12.3707 11.1151 12.164 11.043C11.9573 10.9669 11.8059 10.9308 11.6565 11.1552C11.5051 11.3775 11.0754 11.8723 10.9403 12.0225C10.8094 12.1707 10.6764 12.1887 10.4533 12.0786C9.12734 11.4296 8.25767 10.9208 7.38391 9.45255C7.15268 9.06195 7.61514 9.09 8.0469 8.2467C8.12057 8.09848 8.08374 7.97228 8.02644 7.86011C7.96915 7.74794 7.51896 6.66228 7.33071 6.2196C7.14859 5.78894 6.96033 5.84903 6.82323 5.84102C6.69227 5.83301 6.54289 5.83301 6.39147 5.83301C6.24004 5.83301 5.99654 5.88909 5.78986 6.10743C5.58319 6.32977 5 6.86459 5 7.95025C5 9.03591 5.80828 10.0875 5.91878 10.2358C6.03337 10.384 7.50873 12.6114 9.77396 13.5709C11.2064 14.1758 11.767 14.2279 12.4832 14.1237C12.9191 14.0596 13.8174 13.5909 14.0036 13.0721C14.1898 12.5553 14.1898 12.1126 14.1346 12.0205C14.0793 11.9223 13.9279 11.8663 13.7049 11.7601Z" fill="#50C349"/>
<path d="M17.6212 6.44759C17.1588 5.34882 16.4958 4.36258 15.6508 3.51549C14.8057 2.67043 13.8195 2.00544 12.7187 1.54506C11.5933 1.07241 10.3984 0.833008 9.16667 0.833008H9.12575C7.88581 0.839146 6.68474 1.08468 5.55529 1.56757C4.46472 2.03409 3.48668 2.69703 2.64982 3.54208C1.81297 4.38714 1.15617 5.36928 0.70193 6.46396C0.231326 7.59752 -0.00602224 8.80269 0.000116081 10.0426C0.0062544 11.4627 0.345908 12.8724 0.982247 14.1329V17.243C0.982247 17.7627 1.40374 18.1842 1.92346 18.1842H5.03558C6.29598 18.8205 7.70575 19.1602 9.12575 19.1663H9.16871C10.3943 19.1663 11.5831 18.929 12.7023 18.4645C13.797 18.0082 14.7812 17.3535 15.6242 16.5166C16.4692 15.6797 17.1342 14.7017 17.5987 13.6111C18.0815 12.4816 18.3271 11.2806 18.3332 10.0406C18.3394 8.7945 18.0979 7.58524 17.6212 6.44759ZM14.5295 15.4096C13.0952 16.8297 11.1923 17.6113 9.16667 17.6113H9.13188C7.89808 17.6051 6.67247 17.2982 5.59008 16.7212L5.4182 16.6291H2.53729V13.7482L2.44521 13.5763C1.86821 12.4939 1.56129 11.2683 1.55516 10.0345C1.54697 7.99447 2.32654 6.07929 3.75677 4.63676C5.18495 3.19424 7.09396 2.39625 9.13393 2.38807H9.16871C10.1918 2.38807 11.1841 2.58654 12.1192 2.9794C13.0318 3.36203 13.8502 3.91243 14.5541 4.6163C15.2559 5.31813 15.8083 6.13862 16.1909 7.0512C16.5879 7.99651 16.7864 8.99912 16.7823 10.0345C16.77 12.0724 15.97 13.9814 14.5295 15.4096Z" fill="#50C349"/>
</g>
<defs>
<clipPath id="clip0_528:7323">
<rect width="20" height="20" fill="white"/>
</clipPath>
</defs>
</svg>
