<svg width="28" height="40" viewBox="0 0 28 40" fill="none" xmlns="http://www.w3.org/2000/svg">
<g clip-path="url(#clip0_1175_9660)">
<path d="M27.6602 37.4309H0.674377V0.5H21.6586L27.6602 6.41618V37.4309Z" fill="white" stroke="#D8D8D8"/>
<path d="M21.8636 0V6.20697H28.1602L21.8636 0Z" fill="#D8D8D8"/>
<path d="M0.174377 27.5861H28.1602V40.0001H0.174377V27.5861Z" fill="#00960E"/>
<path d="M16.2664 37.9308H12.0686C11.6822 37.9308 11.3689 37.622 11.3689 37.2415C11.3689 36.8606 11.6822 36.5518 12.0686 36.5518H16.2664C16.6525 36.5518 16.9661 36.8606 16.9661 37.2415C16.9661 37.622 16.6525 37.9308 16.2664 37.9308Z" fill="white"/>
<path d="M12.0686 37.9308C11.6822 37.9308 11.3689 37.622 11.3689 37.2414V30.3448C11.3689 29.9639 11.6822 29.6551 12.0686 29.6551C12.4546 29.6551 12.7683 29.9639 12.7683 30.3448V37.2414C12.7683 37.622 12.4546 37.9308 12.0686 37.9308Z" fill="white"/>
<path d="M9.96938 13.1033H4.37215C3.98608 13.1033 3.67245 12.7945 3.67245 12.4139V9.65512C3.67245 9.27457 3.98608 8.96542 4.37215 8.96542H9.96938C10.3558 8.96542 10.6691 9.27457 10.6691 9.65512V12.4139C10.6691 12.7945 10.3558 13.1033 9.96938 13.1033ZM5.07184 11.7242H9.26969V10.3448H5.07184V11.7242Z" fill="#8B8B8B"/>
<path d="M9.96938 15.8621H4.37215C3.98608 15.8621 3.67245 15.5529 3.67245 15.1724V12.4139C3.67245 12.0331 3.98608 11.7242 4.37215 11.7242H9.96938C10.3558 11.7242 10.6691 12.0331 10.6691 12.4139V15.1724C10.6691 15.5529 10.3558 15.8621 9.96938 15.8621ZM5.07184 14.4827H9.26969V13.1033H5.07184V14.4827Z" fill="#8B8B8B"/>
<path d="M23.9623 15.8621H9.96938C9.58331 15.8621 9.26968 15.5529 9.26968 15.1724V12.4139C9.26968 12.0331 9.58331 11.7242 9.96938 11.7242H23.9623C24.3487 11.7242 24.662 12.0331 24.662 12.4139V15.1724C24.662 15.5529 24.3487 15.8621 23.9623 15.8621ZM10.6691 14.4827H23.2626V13.1033H10.6691V14.4827Z" fill="#8B8B8B"/>
<path d="M9.96938 18.6206H4.37215C3.98608 18.6206 3.67245 18.3117 3.67245 17.9309V15.1724C3.67245 14.7918 3.98608 14.4827 4.37215 14.4827H9.96938C10.3558 14.4827 10.6691 14.7918 10.6691 15.1724V17.9309C10.6691 18.3117 10.3558 18.6206 9.96938 18.6206ZM5.07184 17.2415H9.26969V15.8621H5.07184V17.2415Z" fill="#8B8B8B"/>
<path d="M23.9623 18.6206H9.96938C9.58331 18.6206 9.26968 18.3117 9.26968 17.9309V15.1724C9.26968 14.7918 9.58331 14.4827 9.96938 14.4827H23.9623C24.3487 14.4827 24.662 14.7918 24.662 15.1724V17.9309C24.662 18.3117 24.3487 18.6206 23.9623 18.6206ZM10.6691 17.2415H23.2626V15.8621H10.6691V17.2415Z" fill="#8B8B8B"/>
<path d="M9.96938 21.3793H4.37215C3.98608 21.3793 3.67245 21.0702 3.67245 20.6897V17.9309C3.67245 17.5503 3.98608 17.2415 4.37215 17.2415H9.96938C10.3558 17.2415 10.6691 17.5503 10.6691 17.9309V20.6897C10.6691 21.0702 10.3558 21.3793 9.96938 21.3793ZM5.07184 20H9.26969V18.6206H5.07184V20Z" fill="#8B8B8B"/>
<path d="M23.9623 21.3793H9.96938C9.58331 21.3793 9.26968 21.0702 9.26968 20.6897V17.9309C9.26968 17.5503 9.58331 17.2415 9.96938 17.2415H23.9623C24.3487 17.2415 24.662 17.5503 24.662 17.9309V20.6897C24.662 21.0702 24.3487 21.3793 23.9623 21.3793ZM10.6691 20H23.2626V18.6206H10.6691V20Z" fill="#8B8B8B"/>
<path d="M9.96938 24.1378H4.37215C3.98608 24.1378 3.67245 23.829 3.67245 23.4481V20.6896C3.67245 20.3088 3.98608 19.9999 4.37215 19.9999H9.96938C10.3558 19.9999 10.6691 20.3088 10.6691 20.6896V23.4481C10.6691 23.829 10.3558 24.1378 9.96938 24.1378ZM5.07184 22.7584H9.26969V21.3793H5.07184V22.7584Z" fill="#8B8B8B"/>
<path d="M23.9623 24.1378H9.96938C9.58331 24.1378 9.26968 23.829 9.26968 23.4481V20.6896C9.26968 20.3088 9.58331 19.9999 9.96938 19.9999H23.9623C24.3487 19.9999 24.662 20.3088 24.662 20.6896V23.4481C24.662 23.829 24.3487 24.1378 23.9623 24.1378ZM10.6691 22.7584H23.2626V21.3793H10.6691V22.7584Z" fill="#8B8B8B"/>
<path d="M4.37145 37.9309C4.24885 37.9309 4.12439 37.8992 4.01262 37.8324C3.68074 37.6364 3.57392 37.2131 3.77238 36.8863L7.97053 29.9896C8.16899 29.6628 8.59871 29.5572 8.93029 29.7531C9.26187 29.949 9.36899 30.3723 9.17023 30.6995L4.97238 37.5958C4.8408 37.8116 4.60922 37.9309 4.37145 37.9309Z" fill="white"/>
<path d="M8.57085 37.9308C8.33276 37.9308 8.10118 37.8114 7.97053 37.5963L3.77238 30.6999C3.57392 30.3731 3.68074 29.9495 4.01262 29.7536C4.3442 29.557 4.77362 29.6632 4.97238 29.9901L9.17023 36.8868C9.36899 37.2136 9.26187 37.6372 8.93029 37.8331C8.8176 37.899 8.69314 37.9308 8.57085 37.9308Z" fill="white"/>
<path d="M22.2134 37.9308H19.7645C19.3784 37.9308 19.0648 37.622 19.0648 37.2414C19.0648 36.8606 19.3784 36.5517 19.7645 36.5517H22.2134C22.7921 36.5517 23.2627 36.0876 23.2627 35.5172C23.2627 34.9468 22.7921 34.4827 22.2134 34.4827H21.5137C20.1633 34.4827 19.0648 33.3999 19.0648 32.069C19.0648 30.7378 20.1633 29.6551 21.5137 29.6551H23.9624C24.3487 29.6551 24.6621 29.9639 24.6621 30.3448C24.6621 30.7253 24.3487 31.0345 23.9624 31.0345H21.5137C20.9351 31.0345 20.4642 31.4986 20.4642 32.069C20.4642 32.6391 20.9351 33.1033 21.5137 33.1033H22.2134C23.5636 33.1033 24.6621 34.186 24.6621 35.5172C24.6621 36.8481 23.5636 37.9308 22.2134 37.9308Z" fill="white"/>
</g>
<defs>
<clipPath id="clip0_1175_9660">
<rect width="28" height="40" fill="white"/>
</clipPath>
</defs>
</svg>
